
<svg width="56" height="26" viewBox="0 0 56 26" fill="none" xmlns="http://www.w3.org/2000/svg">
<rect x="0.5" y="0.5" width="55" height="25" rx="3.5" fill="white"/>
<rect x="0.5" y="0.5" width="55" height="25" rx="3.5" stroke="#C5C5C5"/>
<path d="M26.798 13.7071C27.1885 13.3166 27.1885 12.6834 26.798 12.2929L20.4341 5.92893C20.0435 5.53841 19.4104 5.53841 19.0198 5.92893C18.6293 6.31946 18.6293 6.95262 19.0198 7.34315L24.6767 13L19.0198 18.6569C18.6293 19.0474 18.6293 19.6805 19.0198 20.0711C19.4104 20.4616 20.0435 20.4616 20.4341 20.0711L26.798 13.7071ZM7 14H26.0909V12H7V14Z" fill="black"/>
<path d="M49.7071 13.7071C50.0976 13.3166 50.0976 12.6834 49.7071 12.2929L43.3431 5.92893C42.9526 5.53841 42.3195 5.53841 41.9289 5.92893C41.5384 6.31946 41.5384 6.95262 41.9289 7.34315L47.5858 13L41.9289 18.6569C41.5384 19.0474 41.5384 19.6805 41.9289 20.0711C42.3195 20.4616 42.9526 20.4616 43.3431 20.0711L49.7071 13.7071ZM29.9091 14H49V12H29.9091V14Z" fill="#1B6DB4"/>
<line x1="28.5" y1="5.5" x2="28.5" y2="20.5" stroke="black"/>
</svg>
