<svg width="24" height="24" viewBox="0 0 24 24" fill="none" xmlns="http://www.w3.org/2000/svg">
<g clip-path="url(#clip0_936_4630)">
<path d="M19.2 0C21.8464 0 24 2.1536 24 4.8V9.6H20.8V4.8C20.8 3.9176 20.0824 3.2 19.2 3.2H16C15.1176 3.2 14.4 3.9176 14.4 4.8V9.6H14.8C15.46 9.6 16 10.14 16 10.8V22.8C16 23.46 15.46 24 14.8 24H1.2C0.54 24 0 23.46 0 22.8V10.8C0 10.14 0.54 9.6 1.2 9.6H11.2V4.8C11.2 2.1536 13.3536 0 16 0H19.2Z" fill="#595959"/>
</g>
<defs>
<clipPath id="clip0_936_4630">
<rect width="24" height="24" fill="white"/>
</clipPath>
</defs>
</svg>
