<svg width="24" height="24" viewBox="0 0 24 24" fill="none" xmlns="http://www.w3.org/2000/svg">
<path d="M20.0633 9.70922H19.556V4.86751C19.3222 2.13679 17.0479 0.00856188 14.2767 0.00856188C14.1275 0.00856188 13.9799 0.0145569 13.8338 0.0265469L10.1521 0.0250481C10.0255 0.0145569 9.87709 0.0078125 9.72796 0.0078125C6.95677 0.0078125 4.68242 2.13604 4.44936 4.84653L4.44786 9.70772H3.94054C3.90906 9.70473 3.87234 9.70323 3.83562 9.70323C3.18367 9.70323 2.64936 10.2053 2.59766 10.8438V22.8383C2.64936 23.4812 3.18442 23.9833 3.83562 23.9833C3.87234 23.9833 3.90906 23.9818 3.94578 23.9788H20.0626C20.0941 23.9818 20.1308 23.9833 20.1675 23.9833C20.8195 23.9833 21.3538 23.4812 21.4055 22.8428V10.8483C21.3538 10.2053 20.8187 9.70323 20.1675 9.70323C20.1308 9.70323 20.0941 9.70473 20.0573 9.70772L20.0633 9.70922ZM8.30115 4.86751C8.39257 3.9795 9.1367 3.29232 10.0412 3.29232C10.0802 3.29232 10.1184 3.29382 10.1566 3.29607H13.8525C13.8855 3.29382 13.9237 3.29232 13.9627 3.29232C14.8672 3.29232 15.6113 3.9795 15.7027 4.86002L15.7035 9.70922H8.09882L8.30115 4.86751Z" fill="#595959"/>
</svg>
