
<svg width="32" height="32" viewBox="0 0 32 32" fill="none" xmlns="http://www.w3.org/2000/svg">
<rect width="32" height="32" rx="8" fill="#1B6DB4"/>
<path d="M23.5784 14.211H17.789V8.42162C17.789 8.359 17.775 8.30026 17.7509 8.24689C17.6844 8.10108 17.538 8 17.3674 8L14.6326 8C14.462 8 14.3156 8.10168 14.2491 8.24689C14.2247 8.29996 14.211 8.359 14.2107 8.42132V14.2107L8.42132 14.2107C8.359 14.211 8.29996 14.2247 8.24689 14.2491C8.10108 14.3156 8 14.462 8 14.6326V17.3674C8 17.538 8.10168 17.6844 8.24689 17.7509C8.30026 17.775 8.359 17.789 8.42162 17.789H14.211V23.5784C14.2113 23.6407 14.225 23.6997 14.2491 23.7531C14.3153 23.8986 14.462 24 14.6326 24H17.3674C17.538 24 17.6844 23.8983 17.7509 23.7531C17.775 23.6997 17.789 23.641 17.789 23.5784V17.789L23.5784 17.789C23.641 17.789 23.6997 17.775 23.7531 17.7509C23.8989 17.6844 24 17.538 24 17.3674V14.6326C24 14.462 23.8986 14.3153 23.7531 14.2491C23.6997 14.225 23.641 14.211 23.5784 14.211Z" fill="white"/>
</svg>
